# xmcd CD database file
#
# Track frame offsets:
#	150
#	16395
#	34900
#	51545
#	65469
#	81872
#	96970
#	112922
#	126252
#	146879
#	162938
#	177541
#	191029
#	204761
#	220145
#	234711
#
# Disc length: 3357 seconds
#
# Revision: 0
# Processed by: cddbd v1.5.2PL0 Copyright (c) Steve Scherf et al.
# Submitted via: ACXtractor (MTCDDB.DLL V2003.12.21)
#
DISCID=ed0d1b10
DTITLE=Isla Grant - Down Memory Lane
DYEAR=2007
DGENRE=Country
TTITLE0=Down Memory Lane
TTITLE1=One
TTITLE2=Nobody's Darlin' but Mine
TTITLE3=Over the Years
TTITLE4=Spending Time with Friends
TTITLE5=Someone is Looking for Someone Like You
TTITLE6=Today (I Started Loving you again)
TTITLE7=Jackson
TTITLE8=Partners in Rhyme
TTITLE9=It's good to see You
TTITLE10=After All these Years
TTITLE11=Will you Travel down this Road with Me
TTITLE12=My Happiness
TTITLE13=An Old Friend Like You
TTITLE14=Makin' Believe
TTITLE15=Whatr's a Girl to Do
EXTD=ID3G:   2 YEAR: 2007
EXTT0=
EXTT1=
EXTT2=
EXTT3=
EXTT4=
EXTT5=
EXTT6=
EXTT7=
EXTT8=
EXTT9=
EXTT10=
EXTT11=
EXTT12=
EXTT13=
EXTT14=
EXTT15=
PLAYORDER=
